<svg id="Layer_1" data-name="Layer 1" xmlns="http://www.w3.org/2000/svg" width="488.86" height="217.11" viewBox="0 0 488.86 217.11"><path d="M5.22,61.23a35.6,35.6,0,0,1,5.34-.42,33.71,33.71,0,0,1,5.33.42L27.33,89.79,39.12,61.23a25,25,0,0,1,4.78-.42,29.82,29.82,0,0,1,5.07.42l2.36,49.85a31.91,31.91,0,0,1-5,.42,25.59,25.59,0,0,1-4.64-.42L40.43,77.24,30.31,100.68q-1,.15-2,.24a17.93,17.93,0,0,1-2.07.1c-.61,0-1.21,0-1.81-.06a14.61,14.61,0,0,1-1.87-.28L13.12,76.76l-1,34.32a23.09,23.09,0,0,1-4.3.42,26.1,26.1,0,0,1-4.58-.42Z"/><path d="M68.31,96.18q.27,4.16,2.91,6a11.74,11.74,0,0,0,6.93,1.87,27.6,27.6,0,0,0,9.5-1.74A16.14,16.14,0,0,1,89,105.68a17.09,17.09,0,0,1,.62,4.15,33.68,33.68,0,0,1-12.2,2.08,23.52,23.52,0,0,1-8.56-1.39A15.08,15.08,0,0,1,63,106.68a15.49,15.49,0,0,1-3.33-5.86A24.73,24.73,0,0,1,58.6,93.4,24.17,24.17,0,0,1,59.71,86,17.11,17.11,0,0,1,63,80a15.71,15.71,0,0,1,5.41-4.06,17.85,17.85,0,0,1,7.53-1.48,16.11,16.11,0,0,1,6.65,1.31,14.73,14.73,0,0,1,5,3.61,15.07,15.07,0,0,1,3.08,5.44,21.32,21.32,0,0,1,1,6.76c0,.88,0,1.74-.1,2.6s-.15,1.53-.24,2.05Zm14.07-6.87a8.76,8.76,0,0,0-1.84-5.38,5.85,5.85,0,0,0-4.74-2,6.88,6.88,0,0,0-5.28,1.94,9.23,9.23,0,0,0-2.15,5.48Z"/><path d="M100.41,82.72h-4.5l-.35-1.38,13-16.57h1.59V75.23h8.39a17.78,17.78,0,0,1,.28,1.87q.06.84.06,1.74c0,.65,0,1.27-.06,1.87a19.24,19.24,0,0,1-.28,2h-8.39V96.8a14,14,0,0,0,.35,3.46,4.94,4.94,0,0,0,1,2.08,3.27,3.27,0,0,0,1.62,1,8.59,8.59,0,0,0,2.29.28,11.75,11.75,0,0,0,2-.18l1.77-.32a14,14,0,0,1,.69,2.75,17.3,17.3,0,0,1,.2,2.53c0,.5,0,.93,0,1.28s-.06.68-.1,1a28.77,28.77,0,0,1-6.59.76q-6.31,0-9.64-3c-2.22-2-3.33-5.16-3.33-9.6Z"/><path d="M143.88,87.51a5.71,5.71,0,0,0-.55-2.7,4.22,4.22,0,0,0-1.52-1.64,6.52,6.52,0,0,0-2.4-.79,21.7,21.7,0,0,0-3.15-.21,24.48,24.48,0,0,0-8,1.46,18,18,0,0,1-1.46-3.4,12.92,12.92,0,0,1-.49-3.81,35.94,35.94,0,0,1,6.11-1.53,36.58,36.58,0,0,1,5.68-.48q7.22,0,11.27,3.46c2.7,2.32,4,6,4,11.1v20.79a56.88,56.88,0,0,1-5.89,1.46,40.4,40.4,0,0,1-7.84.69,31.75,31.75,0,0,1-6.48-.62,13.84,13.84,0,0,1-5.06-2.08,9.75,9.75,0,0,1-3.26-3.75,12.46,12.46,0,0,1-1.14-5.61,10.23,10.23,0,0,1,1.42-5.58,11,11,0,0,1,3.67-3.61,16.3,16.3,0,0,1,5-1.94,26.82,26.82,0,0,1,5.54-.59q2,0,4.44.21Zm0,7.14c-.55-.09-1.15-.18-1.8-.24a13.9,13.9,0,0,0-1.73-.1A10.17,10.17,0,0,0,135,95.52a4.23,4.23,0,0,0-2,3.91,4.4,4.4,0,0,0,.76,2.78,4.6,4.6,0,0,0,1.84,1.42,7.46,7.46,0,0,0,2.29.55c.81.07,1.51.11,2.11.11a12.09,12.09,0,0,0,2.08-.18l1.8-.31Z"/><path d="M161.91,60.4a28.68,28.68,0,0,1,9.78,0V96.8a20,20,0,0,0,.24,3.46,5.09,5.09,0,0,0,.76,2,2.68,2.68,0,0,0,1.35,1,6.56,6.56,0,0,0,2.09.28c.36,0,.77,0,1.21-.06s.86-.12,1.28-.22a21.37,21.37,0,0,1,.76,5.56v1a4.43,4.43,0,0,1-.14,1,14.13,14.13,0,0,1-2.67.48c-1,.09-2,.14-2.87.14a12.18,12.18,0,0,1-8.57-3c-2.15-2-3.22-5.16-3.22-9.6Z"/><path d="M193.4,61.23a35.6,35.6,0,0,1,5.34-.42,33.71,33.71,0,0,1,5.33.42l11.45,28.56L227.3,61.23a25,25,0,0,1,4.79-.42,29.61,29.61,0,0,1,5.06.42l2.36,49.85a31.91,31.91,0,0,1-5,.42,25.67,25.67,0,0,1-4.64-.42l-1.25-33.84-10.13,23.44q-1,.15-2,.24a17.93,17.93,0,0,1-2.07.1c-.6,0-1.2,0-1.81-.06a14.61,14.61,0,0,1-1.87-.28L201.3,76.76l-1,34.32a23.09,23.09,0,0,1-4.3.42,26,26,0,0,1-4.57-.42Z"/><path d="M266.54,87.51a5.71,5.71,0,0,0-.55-2.7,4.17,4.17,0,0,0-1.53-1.64,6.41,6.41,0,0,0-2.39-.79,21.7,21.7,0,0,0-3.15-.21,24.59,24.59,0,0,0-8,1.46,18.6,18.6,0,0,1-1.45-3.4,12.92,12.92,0,0,1-.49-3.81,35.6,35.6,0,0,1,6.1-1.53,36.8,36.8,0,0,1,5.69-.48q7.2,0,11.27,3.46c2.69,2.32,4.05,6,4.05,11.1v20.79a57.13,57.13,0,0,1-5.9,1.46,40.29,40.29,0,0,1-7.83.69,31.75,31.75,0,0,1-6.48-.62,14,14,0,0,1-5.07-2.08,9.81,9.81,0,0,1-3.25-3.75,12.46,12.46,0,0,1-1.15-5.61,10.24,10.24,0,0,1,1.43-5.58,10.92,10.92,0,0,1,3.67-3.61,16.3,16.3,0,0,1,5-1.94,26.68,26.68,0,0,1,5.54-.59c1.34,0,2.83.07,4.44.21Zm0,7.14c-.55-.09-1.15-.18-1.8-.24a14,14,0,0,0-1.74-.1,10.22,10.22,0,0,0-5.37,1.21,4.23,4.23,0,0,0-2,3.91,4.4,4.4,0,0,0,.77,2.78,4.6,4.6,0,0,0,1.84,1.42,7.46,7.46,0,0,0,2.29.55c.8.07,1.51.11,2.11.11a12.09,12.09,0,0,0,2.08-.18l1.8-.31Z"/><path d="M284.85,75.23a19.3,19.3,0,0,1,2-.3,16.26,16.26,0,0,1,2.05-.11,15.31,15.31,0,0,1,2,.14c.67.09,1.33.21,2,.35a4,4,0,0,1,.38,1c.12.44.22.9.31,1.39s.17,1,.25,1.45.12.9.16,1.22a18,18,0,0,1,3.75-3.85,8.88,8.88,0,0,1,5.55-1.7c.46,0,1,0,1.59.07a6.6,6.6,0,0,1,1.32.2,13,13,0,0,1,.21,1.6c0,.61.07,1.23.07,1.87s0,1.65-.1,2.57a21.22,21.22,0,0,1-.38,2.64,9,9,0,0,0-1.71-.14h-1.14a16.14,16.14,0,0,0-2.63.24,6,6,0,0,0-2.78,1.28,7.54,7.54,0,0,0-2.18,3.12,15.56,15.56,0,0,0-.87,5.82v17.06a23.42,23.42,0,0,1-2.49.28c-.84,0-1.65.07-2.43.07s-1.58,0-2.39-.07-1.66-.14-2.53-.28Z"/><path d="M312.1,60.4A27.52,27.52,0,0,1,317,60a28.83,28.83,0,0,1,4.92.42v50.68a28.83,28.83,0,0,1-4.92.42,27.52,27.52,0,0,1-4.85-.42Zm11.15,31.89,8.88-17.06a36.93,36.93,0,0,1,5.48-.41,32,32,0,0,1,5.13.41L333.59,91.8l10.67,19.28a37.4,37.4,0,0,1-5.47.42,33.42,33.42,0,0,1-5.13-.42Z"/><path d="M356.26,96.18c.19,2.77,1.15,4.78,2.91,6a11.8,11.8,0,0,0,6.94,1.87,27.6,27.6,0,0,0,9.5-1.74,17.34,17.34,0,0,1,1.32,3.34,17.59,17.59,0,0,1,.62,4.15,33.73,33.73,0,0,1-12.21,2.08,23.52,23.52,0,0,1-8.56-1.39,15.11,15.11,0,0,1-5.82-3.84,15.49,15.49,0,0,1-3.33-5.86,24.41,24.41,0,0,1-1.08-7.42A23.87,23.87,0,0,1,347.67,86,17.11,17.11,0,0,1,351,80a15.62,15.62,0,0,1,5.41-4.06,17.77,17.77,0,0,1,7.52-1.48,16.07,16.07,0,0,1,6.65,1.31,14.54,14.54,0,0,1,5,3.61,14.92,14.92,0,0,1,3.08,5.44,21.32,21.32,0,0,1,1,6.76c0,.88,0,1.74-.1,2.6a17.67,17.67,0,0,1-.24,2.05Zm14.08-6.87a8.83,8.83,0,0,0-1.84-5.38,5.87,5.87,0,0,0-4.75-2,6.84,6.84,0,0,0-5.27,1.94,9.1,9.1,0,0,0-2.15,5.48Z"/><path d="M388.36,82.72h-4.5l-.35-1.38,13-16.57h1.6V75.23h8.39a17.78,17.78,0,0,1,.28,1.87q.06.84.06,1.74c0,.65,0,1.27-.06,1.87a19.24,19.24,0,0,1-.28,2h-8.39V96.8a13.54,13.54,0,0,0,.35,3.46,4.93,4.93,0,0,0,1,2.08,3.35,3.35,0,0,0,1.63,1,8.59,8.59,0,0,0,2.29.28,11.75,11.75,0,0,0,2.05-.18l1.76-.32a13.35,13.35,0,0,1,.69,2.75,17.42,17.42,0,0,1,.21,2.53c0,.5,0,.93,0,1.28s-.06.68-.1,1a28.77,28.77,0,0,1-6.59.76q-6.31,0-9.64-3c-2.22-2-3.33-5.16-3.33-9.6Z"/><path d="M285.25,124.61h15.68a11.76,11.76,0,0,1,.11,1.74c0,.3,0,.6,0,.92a5.54,5.54,0,0,1-.09.87H289.3v8.17h9.29c.05.27.08.55.11.86s0,.6,0,.89,0,.59,0,.92-.06.61-.11.87H289.3v9.76h11.94a11.74,11.74,0,0,1,.12,1.75c0,.28,0,.59,0,.91a5.62,5.62,0,0,1-.1.87h-16Z"/><path d="M306,132.79a6.71,6.71,0,0,1,1-.12c.37,0,.69,0,1,0s.62,0,1,0a7.06,7.06,0,0,1,1,.12v11.15a11.28,11.28,0,0,0,.36,3.15,4.24,4.24,0,0,0,1.07,2,3.78,3.78,0,0,0,1.74,1,9.45,9.45,0,0,0,2.38.27,11.58,11.58,0,0,0,3.45-.44V132.79a7,7,0,0,1,1-.12c.36,0,.69,0,1,0s.61,0,1,0a6.59,6.59,0,0,1,1,.12V152.5c-.92.27-2,.52-3.31.76a21.69,21.69,0,0,1-4,.36,18.75,18.75,0,0,1-3.67-.34,7.09,7.09,0,0,1-3-1.37,6.86,6.86,0,0,1-2.06-2.9,13.37,13.37,0,0,1-.75-4.91Z"/><path d="M329,132.79a6.64,6.64,0,0,1,.83-.12,7.44,7.44,0,0,1,.84,0,8.46,8.46,0,0,1,.87,0,4.38,4.38,0,0,1,.79.12c.08.39.16.91.25,1.57a15.65,15.65,0,0,1,.11,1.64,8.28,8.28,0,0,1,2.2-2.34,5.88,5.88,0,0,1,3.52-1H339l.58.06c.05.24.09.49.12.76s0,.54,0,.83a6.74,6.74,0,0,1-.06,1,9.44,9.44,0,0,1-.14,1,2.75,2.75,0,0,0-.65-.08h-.53a7.26,7.26,0,0,0-2.05.3,4.41,4.41,0,0,0-1.75,1.05,5.34,5.34,0,0,0-1.22,2.07,10.28,10.28,0,0,0-.46,3.38v10.11a8.57,8.57,0,0,1-1,.12c-.36,0-.68,0-1,0s-.61,0-1,0a10.2,10.2,0,0,1-1-.12Z"/><path d="M351.4,153.62a9.85,9.85,0,0,1-4.17-.82,8.35,8.35,0,0,1-3-2.24,9.5,9.5,0,0,1-1.76-3.37,15.8,15.8,0,0,1,0-8.41,9.55,9.55,0,0,1,1.76-3.38,8.49,8.49,0,0,1,3-2.25,10.77,10.77,0,0,1,8.34,0,8.45,8.45,0,0,1,3,2.25,9.24,9.24,0,0,1,1.76,3.38,15.53,15.53,0,0,1,0,8.41,9.19,9.19,0,0,1-1.76,3.37,8.31,8.31,0,0,1-3,2.24A9.88,9.88,0,0,1,351.4,153.62Zm0-3.13a4.51,4.51,0,0,0,4.05-2,10,10,0,0,0,1.3-5.52,9.84,9.84,0,0,0-1.3-5.49,4.5,4.5,0,0,0-4.05-2,4.45,4.45,0,0,0-4,2,9.93,9.93,0,0,0-1.29,5.49,10.06,10.06,0,0,0,1.29,5.52A4.47,4.47,0,0,0,351.4,150.49Z"/><path d="M366,132.79a5.27,5.27,0,0,1,.81-.12,8.11,8.11,0,0,1,.86,0c.26,0,.53,0,.83,0a5.35,5.35,0,0,1,.83.12,2.19,2.19,0,0,1,.1.49c0,.28.08.58.12.89s.08.63.12.92.06.48.06.55a8.12,8.12,0,0,1,.95-1.23,6.85,6.85,0,0,1,1.33-1.07,6.6,6.6,0,0,1,1.75-.75,7.64,7.64,0,0,1,2.16-.28,9.14,9.14,0,0,1,3.31.59,6.71,6.71,0,0,1,2.62,1.85,8.8,8.8,0,0,1,1.71,3.17,15,15,0,0,1,.61,4.55c0,3.49-.94,6.22-2.84,8.19s-4.57,3-8,3a13.8,13.8,0,0,1-1.79-.12,10.69,10.69,0,0,1-1.58-.32v9.33c-.32.05-.66.09-1,.11s-.69,0-1,0-.61,0-1,0a8.41,8.41,0,0,1-1-.11Zm3.93,17a8.21,8.21,0,0,0,1.55.4,14.37,14.37,0,0,0,2.06.11,7.39,7.39,0,0,0,2.62-.45,5.35,5.35,0,0,0,2-1.41,6.92,6.92,0,0,0,1.35-2.41,10.58,10.58,0,0,0,.49-3.43,9.54,9.54,0,0,0-1.16-5,4.19,4.19,0,0,0-3.83-1.86,5.18,5.18,0,0,0-1.91.36,4.57,4.57,0,0,0-1.63,1.07,5.46,5.46,0,0,0-1.15,1.8,7,7,0,0,0-.43,2.6Z"/><path d="M392.39,143.94a6.62,6.62,0,0,0,1.72,4.87,6.82,6.82,0,0,0,4.86,1.55,14.62,14.62,0,0,0,5.36-1,6,6,0,0,1,.52,1.45,10,10,0,0,1,.24,1.68,12.71,12.71,0,0,1-2.88.84,20.49,20.49,0,0,1-3.47.28,13.06,13.06,0,0,1-4.77-.78,8.33,8.33,0,0,1-5.15-5.52,14,14,0,0,1-.6-4.22,14.86,14.86,0,0,1,.58-4.23,9.61,9.61,0,0,1,1.76-3.41,8.51,8.51,0,0,1,3-2.3,9.87,9.87,0,0,1,4.26-.85,8.84,8.84,0,0,1,3.69.71,7.47,7.47,0,0,1,2.67,2,8.52,8.52,0,0,1,1.62,3,12.23,12.23,0,0,1,.55,3.75c0,.38,0,.77,0,1.18s-.05.75-.08,1.05ZM402.47,141a7.51,7.51,0,0,0-.3-2.13,5.27,5.27,0,0,0-.87-1.76,4.25,4.25,0,0,0-1.47-1.21,4.54,4.54,0,0,0-2.12-.46,4.69,4.69,0,0,0-3.72,1.47,7.32,7.32,0,0,0-1.56,4.09Z"/></svg>